<svg version="1" xmlns="http://www.w3.org/2000/svg" width="1333.333" height="1333.333" viewBox="0 0 1000.000000 1000.000000"><path d="M.2 16.2l.3 16.2 132.9 46.3c73.1 25.4 133.3 46.6 133.7 47 .8.9 14.9 61.8 14.9 64.3 0 .8-7.4 8.6-16.5 17.3-25.4 24.3-35 37.3-50.4 67.7-14.6 28.7-22.1 49.4-32.7 90.4-2.7 10.2-5.1 18.6-5.4 18.6-.3 0-1.3-8.2-2.3-18.3-3.6-37.8-8.3-63.1-14.2-75.2-4.8-10-11.8-17.4-19.6-21-5.8-2.6-6.8-2.7-16.3-2.2-11.1.5-14.8 1.7-22.2 7.2-10.2 7.6-17.1 17.3-21.3 30.2-6.1 18.4-8.2 42.4-6.1 68.4.7 8.7 1.1 16.1.8 16.4-.3.3-4.9.9-10.4 1.5-21.4 2-39.9 10.9-57.1 27.4L0 426.3V447c0 11.4.5 23.2 1 26.1.6 3 3.1 20.5 5.6 38.9 5.9 44 8.8 61.1 13.6 80.5C25 611.7 36.8 647.7 44 665c7.2 17.4 11 28 11 31.3 0 4.4-3.7 5.5-10.8 3.3-8.9-2.9-17.4-7-21.4-10.5-5.1-4.5-12.9-15.2-18.2-25.2L0 655.5v5c0 3.2.9 6.9 2.5 10.3 3.2 6.8 3.2 8.2 0 5.2L0 673.7v4.5c0 4.1.4 5 3.7 7.9 2.1 1.8 8.8 6.5 14.9 10.5 11.7 7.6 14.9 10.7 37.6 37.1 33.8 39.2 38.2 43.8 58.8 60.6 42 34.4 78 58.4 120.5 80.3 33.9 17.5 66.4 31 110.6 46 35.6 12 37.9 13 37.9 15.9 0 1.2-1.4 6.7-3.1 12.1-1.6 5.5-5.4 19.2-8.4 30.6l-5.3 20.8H724.5l2.5-5.8c1.8-4.2 4.9-8.2 11.7-15.1 5.1-5.2 9.6-9.1 10-8.8.3.4-.5 2-1.9 3.5-4.4 4.6-8 13.1-8.6 19.9l-.5 6.3h65l.7-5.9c1.9-16.4 15-29.1 30.2-29.1 8.5 0 14.5 2.4 21 8.3 7.7 7 10.4 12.9 10.6 22.6v4.1h23.4c16.7 0 23.4-.3 23.4-1.1 0-.6-.9-5.2-2.1-10.1-1.2-4.9-1.9-9.2-1.5-9.5.5-.5 4.2 5 10.8 16.1l2.8 4.6h78V850.1l-14.2-12.7c-26.4-23.5-43.3-36-64.5-47.9-23.4-13-54.9-25-80.3-30.6-5.2-1.1-9.6-2.2-9.8-2.3-.1-.2 3.6-2.2 8.3-4.4 20.7-10 48.2-27.5 76.4-48.7 35.6-26.8 55.9-45.1 74.2-66.8l9.9-11.7V515.3l-4.6-1.3c-5.8-1.6-15.6-10.5-21.4-19.4-18.9-28.5-33.9-88.4-34.4-136.9-.1-13.7-.1-13.8-2.5-14.4-1.3-.3-11.8-.3-23.3 0l-20.8.5v-5.1c0-15.1 5.4-50.2 11-72.2 6.8-26.5 16.5-49.4 26.9-63.6 8.6-11.7 20.5-15.1 34.5-9.9 9.2 3.5 19 15.1 29.7 35.3l4.9 9.2v-35.4l-8.9-12c-18.5-24.7-42.7-49.8-66.7-69.1-6.7-5.4-12.8-10.1-13.6-10.6-1.2-.7-1.8-5-2.8-20.3-.8-12.7-.8-19.6-.2-20 .5-.3 21.5-13.6 46.6-29.5l45.6-29V0H0l.2 16.2zM763 121.4c154.1 14.9 142.1 13.5 147.4 16.4 2.7 1.5 13.7 11 24.5 21.2l19.5 18.5-7.9.7c-5.8.5-9.6 1.6-14.1 3.8-12.5 6.1-26.1 24.6-36 49-1.9 4.7-2.6 5.5-5.1 5.8-51.5 4.7-102.4 17.2-133.6 32.8-9 4.5-22.3 13.3-25.9 17.1-1.6 1.7-5.7 10.5-10.4 22.1-4.8 12.2-8.3 19.5-9.3 19.8-5.3 1.6-15.2 7.5-19.5 11.9-13.8 13.7-19.6 38.5-15.1 64.6 1 5.7 1.8 11.3 1.9 12.4.1 1.6-3.7 4-18.9 12.2-52.4 28.2-122.1 57.4-143.5 60-9 1.1-96.2-13.8-136.1-23.3l-10.6-2.5-2.6-10.7c-5.7-23-17.5-39.5-34.5-48.1-5.9-3-18.4-6.1-24.7-6.1h-5.2l-2.2-8.8c-1.2-4.8-4.4-13.3-7.1-18.9-5-10.1-5-10.2-11.2-13.2-11.6-5.7-29.9-8.1-61-8.1h-20l.7-4.3c1.1-6.4 7.2-26.2 11.1-35.5 15-36.1 40-72.8 73.3-107.3l8.6-9 15-5.5c48.6-17.9 130.5-43.8 157.5-49.8 36.4-8.1 106.9-16.7 167.5-20.5 7.7-.5 31.1-.8 52-.6 34.8.2 41.1.6 75.5 3.9zm126.7 131c-1.2 3.1-8.7 40.9-11.2 56.6-6.9 42.6-3 95.5 11.1 152.2 7.1 28.5 15.5 51 28.6 77.2 12.5 24.9 30.9 53 47.3 72.1 2.8 3.3 5.5 6.5 5.8 7.2 1.8 3-51.5 57.8-68.3 70.3-16.2 12-60.6 40.8-79.1 51.4-19.8 11.3-33.7 17.7-60.7 28-47.3 17.9-76.3 24.9-127.7 30.6-89.1 9.8-151.2 8.9-186.5-3-52.8-17.7-109.7-58.2-156.2-111-14.9-16.9-40.5-50.8-60-79.4l-8.8-12.9v-19.6c0-36.7-3.5-54-17.5-87.1-11-26.1-17.7-48.4-17.6-58.1.1-8.6 7-51 10.1-62l1-3.7 8.8-1.2c14.2-2.1 39.5-.1 60.3 4.6 5.9 1.3 8 2.3 10.5 5 3.8 4 9 16 11.1 25.9l1.6 7.3-5.1 6.9c-11.2 14.9-17.1 31.6-17.9 51.4-.5 9.8-.2 14.3 1.2 20.5 4.7 21.4 20.2 42.2 38.1 51.1 6.9 3.4 7.7 3.5 15.1 3.1 10.6-.6 17.4-4 25.7-12.8 7.7-8.2 14.5-21.4 18.2-35.5 1.4-5.5 2.7-10.1 2.9-10.3.2-.2 11.5 2 25.1 4.7 42.2 8.6 80.3 14.6 109.3 17.4l13.4 1.3 12.7-3.2c28.6-7.3 64.3-22.1 116.5-48.4l37.1-18.5 4.4 8c6 10.7 17.2 22.1 26 26.3 13.1 6.4 24.7 6.6 36.6.7 12.4-6.1 20.9-17.8 25.6-35.2 2.7-10.1 3-32.1.5-43-3.9-17.1-12-34.8-19.8-43.7-5.7-6.4-16.3-12.2-24-13.2-2.7-.4-4.9-.9-4.9-1.3 0-1.6 12.5-31.8 13.9-33.5 4.4-5.2 22.9-15.3 41-22.3 26.6-10.2 55-16.6 96.6-21.6 7.4-.9 9.7-.7 9.2.7zm-750 21.7c7.4 3.6 12.8 12.2 18.1 29 3.8 11.6 5.5 21.7 8.2 46.4 1.1 10.4 2.7 25.2 3.6 32.9.8 7.6 1.3 14 1.1 14.2-.2.2-5-2.6-10.7-6.2-12.5-8.1-19.2-10.9-30.6-12.9-9.8-1.7-34.9-2.1-35.9-.5-.4.6 3.1 1 9.7 1 26.7 0 46.9 7.4 59.9 21.9 8.4 9.3 9.5 12 12.3 28.8 3.2 19.1 6.9 34.3 11.2 45.8 8 21.6 16.5 45.6 18.7 53.5 6.1 21 7.7 44.3 4.4 62.8-3.3 17.9-12.4 41.9-22.3 58.5-6.4 10.7-5.9 10.6-11.5 2.2-2.7-4-4.9-7.6-4.9-7.9 0-.3.8-.6 1.8-.6 2.8 0 6.7-4.8 10.4-12.5 3-6.5 3.3-7.8 3.3-17 0-14.3-2.8-21.9-13.5-36.2-2.7-3.7-2.6-4 4.4-15 6.8-10.7 7.1-12.9 7-50.8-.1-38.7-.4-40.8-7.9-56.2-12.1-24.7-34.3-45-60.6-55.3-7-2.8-16.9-6-21.9-7.2-6.6-1.5-9.4-2.6-10.1-4-2.1-3.9-3.4-33.9-2.1-49.6 2.3-30.7 10.3-49 26.4-60.8 10.3-7.6 21.5-9.1 31.5-4.3zM83.2 401c3.3 1 4.1 1.9 7.5 8.7 3.6 7.2 3.7 8 4.1 19.9.4 11.6-1.8 31.7-3.6 33.6-.4.3-5.9 1.1-12.2 1.8-24.2 2.3-51.1 10.9-62.4 19.9-2.1 1.7-4 3.1-4.1 3.1-.2 0-.8-3.9-1.4-8.8-2.3-17-3.2-21.5-5.7-26.3-3-6-3.1-10.9-.2-16.7 4.1-8.7 21.1-24.3 32.5-30.1 4.3-2.1 13.7-4.6 20.3-5.4 7.4-.8 21.7-.6 25.2.3zm21 3.6c9.3 3.4 23.6 10.5 31.3 15.7 7.9 5.3 20.8 18.5 26.8 27.4 6.1 9.2 12.2 22.1 14.3 30.1 1.3 5.2 1.4 7.8.6 13.9-1 7.5-2.9 11.4-4 8.3-1.5-4.2-15.8-14-30.7-21.1-8.9-4.3-31.5-11.4-41.7-13.3l-3.8-.7v-22.2c0-20.2-.6-28.2-2.6-37.5-.8-4 0-4.1 9.8-.6zm-13.5 68.1c3.4 4.1 9.1 16 10.4 21.8.7 2.7 1.8 7 2.5 9.5 1.4 4.5 1.4 4.5.9-3.5-.5-8.9-2.6-17.9-5.5-24.1-1.1-2.2-2-4.3-2-4.6 0-.9 20.6 4.7 30.2 8.2 20.9 7.6 40.7 22.8 47.2 36.3 6.5 13.2 3.2 34.2-7 45.6l-4.5 5-5.5-4.4c-3-2.5-7.6-5.6-10.2-6.9-8.8-4.4-26.5-9.4-37.2-10.4-7.5-.8-6.9 1-5.7-16.7l.7-10-2.8 10.2c-1.6 5.6-3.6 11.1-4.5 12.1-1.4 1.5-3.7 2-11.5 2.5-17.5 1.1-34.2 5.5-53 14.1-5.3 2.5-10 4.2-10.3 3.8-.4-.4-2.7-13.3-5.2-28.7-3.2-20.3-4.2-28.7-3.5-30.5 2-5.4 18.6-19.9 28.3-24.8 6.1-3.1 13.8-5 26-6.6 14.9-2 19.3-1.6 22.2 2.1zm9.1 80c8.3 6.1 16.5 26.8 16.5 41.8 0 5.6-.6 8.6-3.4 15.5l-3.4 8.5-14.2.7c-20.4.9-41.1 4.2-50.5 7.9-3.5 1.4-4.9 1.5-5.6.6-.9-1.1-9.3-30.1-12.7-43.6-.9-3.5-1.4-7.4-1.1-8.7 1.7-6.5 26.6-19.2 47.1-23.9 8.7-2.1 23.8-1.4 27.3 1.2zm28.2 4.5c13.1 4.2 22.2 9.2 29.7 16.2 22.3 20.8 26.3 38.1 13.7 59.6-1.9 3.3-4 6-4.5 6-.6 0-2.5-1.1-4.2-2.4-7.3-5.6-26.2-13.2-42.7-17.3-3.4-.8-3.5-1-3-4.8.3-2.2.5-10.5.5-18.5 0-16.9-1.8-25.9-7-36.9-1.9-4-3.5-7.4-3.5-7.6 0-.5 12.5 2.9 21 5.7zM107.1 627c2 .6 4.5 2.3 5.7 4 3.8 5.1 9.5 17.1 11.8 25 2.3 7.5 2.3 7.5 2.3 3 .1-6.7-2.3-16.8-5.8-24.5-1.7-3.7-2.9-7-2.7-7.3.9-.8 19.2 5 26.1 8.3 8.5 4.1 17.5 11.1 21.5 16.7 3.4 4.6 4 11.4 1.7 17.1-3.3 7.8-35 31.1-38.1 28-.3-.4-.6-4.3-.7-8.7-.1-9.2-1.3-17.9-2.2-15.6-.3.8-.8 4.6-1.2 8.5-1.9 21.2-5.8 24.1-31.6 23.9-14.5-.2-23.2-1.9-26.1-5.1-1.6-1.8-19.9-44.9-23.4-55-1.8-5.2-1.8-5.3.1-6.7 2.6-1.9 24.1-9.1 33-11 8.1-1.7 24.4-2 29.6-.6zM712 801.9c0 3.6-3.9 14.6-6.9 19.4-4.5 6.9-10.4 12.5-20.6 19.1-4.9 3.2-11.6 7.8-14.7 10.2-3.1 2.4-6.1 4.4-6.6 4.4-.6 0-6.3-6.2-12.8-13.7-6.6-7.6-14-16-16.6-18.9-2.7-2.8-4.8-5.4-4.8-5.7 0-1.6 4.9-2.8 18.2-4.8 15.4-2.2 39.7-6.8 51.8-9.9 10.1-2.5 13-2.5 13-.1zm-137.3 18.7c.7 1.9-3.5 8.9-11.5 18.6-3.8 4.6-10.1 12.7-14.1 18.1-5.3 7.2-7.7 9.8-9 9.4-.9-.2-7.6-4.3-14.8-9.1l-13.1-8.7-5.1-14.6c-2.8-8-4.9-14.9-4.5-15.2.9-.9 67.7-1.7 69.7-.8 1 .5 2.1 1.5 2.4 2.3zm86.6 42.3c3.6 1.4 8.4-.2 16.2-5.6 11.1-7.5 17-9.8 18.1-7 .2.7-2.7 11.4-6.6 23.7-8.8 27.7-33.9 103.2-34.5 103.9-1.1 1-1.8-1.5-5.1-17.6-3.2-16-4.8-22.3-15.9-63.7-4.7-17.2-4.8-17.9-3.1-20.5 3.1-4.8 8.3-15.6 9.5-19.6.7-2.2 1.7-5.3 2.3-6.8l1.1-2.9 7.6 7.6c4.2 4.1 8.8 8 10.4 8.5zm-79.8 10.4c3 3.8 5.5 7.6 5.6 8.5.4 7.4-2.4 31.7-7 59.8-1.6 9.8-3.9 24.2-5.1 31.9-3.1 21.2-2.5 20.5-7.7 9.5-15.7-33.5-36.1-82-41.8-99.3-4.8-14.7-3.5-16.4 7.8-10.2 3.5 1.9 7.7 3.5 9.4 3.5 3.2 0 4.8-1.5 19.2-17.9l6.4-7.3 3.9 7.4c2.1 4 6.3 10.4 9.3 14.1z"/><path d="M660 498.5c-2.5.7-10.6 4-18 7.3-33.7 14.9-57.6 20.6-124 29.6-25 3.4-38.3 4.4-80.5 6.1-19.8.8-37.7 1.9-39.8 2.5-5.6 1.7-10 6.1-13.6 14l-3.3 7.1.4 17.2c.4 16.7.5 17.5 4 27.9 11.2 32.6 28.8 54.4 54.8 67.7 24.8 12.7 50.4 17.8 84.4 16.8 21.2-.6 34.5-2.4 55.3-7.7 29.4-7.5 56.3-20 75.2-34.9 11.9-9.3 31.1-29.5 37.6-39.4 12.8-19.7 19.1-41.5 16.7-58-2.8-18.3-12.9-39.3-24.4-50.4-7.3-7.1-14.6-8.8-24.8-5.8zm-84.5 148.1c7.6 1.4 46.5 16.1 46.5 17.6 0 1.2-24.7 11-36.5 14.4-23.1 6.7-55.5 11.1-74.5 10-13.8-.8-22.8-2.6-37.4-7.3-9-2.9-10.6-3.7-9.5-4.8 3.5-3.2 31.5-21.9 36.2-24 7.5-3.5 16.9-5.3 36.2-6.9 18.5-1.5 26.8-1.3 39 1zM978.1 315.5c-6.6 5.7-9.7 21.9-8.8 47 .3 8.8 1.3 19.9 2.2 24.8 5.1 28.3 16.4 50.7 25.5 50.7h3V331.3l-3-6.1c-5.7-11.3-12.7-14.9-18.9-9.7zM839.3 979.7c-5 .7-5.7 2.2-4.4 10 1.8 10.4 1.7 10.3 6.2 10.3 2.1 0 3.9-.5 3.9-1 0-1.3 5.7-1.3 6.5 0 .7 1.2 7.5 1.4 7.5.2 0-.4-.9-2-1.9-3.5-1.3-2.1-1.7-4-1.4-7 .9-7.7-4.5-10.7-16.4-9zm9 9.2c-.7 2.7-2.9 3.3-4.8 1.5-2-2.1-1.9-4.2.3-4.7 2.7-.6 5.1 1 4.5 3.2zM827.2 983.2c-1.5 1.5-1.5 5.2-.1 11.8 1 4.8 1.2 5 4.5 5 3.1 0 3.4-.2 2.9-2.5-.3-1.4-.7-3.7-1.1-5.3-2-9.9-3.3-11.9-6.2-9zM811.1 985.9c-1.1.7-1.2 2-.1 7.5l1.2 6.6h3.9c4.4 0 4.3.3 2.5-6.8-2.1-7.6-4-9.5-7.5-7.3z"/></svg>